#!OML:ASF E:\Steps\Project 1\Capture day 1\Session 2\Subject.ASF
:FULLY-SPECIFIED
:DEGREES
622
root 8.79205 18.5821 -7.88562 -156.447 -4.28093 179.557
lowerback -17.3862 -4.09458 -2.78145
upperback 1.7687 -5.1227 1.87909
thorax 12.1884 -2.67988 2.22582
lowerneck -1.6139 -2.79149 -2.02234
upperneck 16.4508 -3.57213 5.69968
head 5.34451 -1.14245 1.96726
rclavicle -1.86858e-014 1.19271e-014
rhumerus -44.705 -18.856 -73.6647
rradius 36.0333
rwrist 0.18695
rhand -6.54955 -53.7208
rfingers 7.12502
rthumb 19.304 -82.7827
lclavicle -1.86858e-014 1.19271e-014
lhumerus -26.928 0.910371 84.5202
lradius 23.3035
lwrist -5.00137
lhand -20.7626 -12.9772
lfingers 7.12502
lthumb 5.60353 16.9287
rfemur -65.6612 1.0841 21.3248
rtibia 53.2168
rfoot -24.6054 -7.961
rtoes -15.3108
lfemur -13.411 -9.84504 -20.6726
ltibia 16.1637
lfoot -8.01046 -0.374464
ltoes -35.5125
623
root 8.81534 18.6214 -7.97738 -156.379 -4.05729 179.583
lowerback -17.2806 -4.05006 -2.62321
upperback 1.80535 -5.0948 1.85143
thorax 12.1485 -2.65499 2.11947
lowerneck -1.94414 -2.67704 -1.80904
upperneck 16.5097 -3.43456 5.6079
head 5.40864 -1.06772 1.90683
rclavicle -2.68359e-015 1.64991e-014
rhumerus -44.3704 -18.7625 -73.9897
rradius 36.1897
rwrist -0.0412382
rhand -6.80799 -52.9849
rfingers 7.12502
rthumb 19.0555 -82.0714
lclavicle -2.68359e-015 1.64991e-014
lhumerus -27.1191 1.75487 84.0517
lradius 23.0032
lwrist -5.73155
lhand -20.4613 -12.8577
lfingers 7.12502
lthumb 5.8945 17.0403
rfemur -65.1447 1.45675 21.3288
rtibia 52.8085
rfoot -24.7877 -7.89752
rtoes -15.3143
lfemur -13.2393 -9.77069 -20.5346
ltibia 16.212
lfoot -7.26288 -0.0706654
ltoes -36.768
624
root 8.83637 18.663 -8.07224 -156.291 -3.93857 179.566
lowerback -17.2823 -4.04033 -2.4073
upperback 1.83624 -5.12043 1.79705
thorax 12.1601 -2.64974 1.92981
lowerneck -2.11641 -2.60341 -1.67571
upperneck 16.5273 -3.3358 5.46455
head 5.43544 -1.02267 1.84303
rclavicle -3.12589e-014 1.39149e-014
rhumerus -44.1725 -18.4351 -74.4434
rradius 36.8467
rwrist -0.509988
rhand -6.89701 -53.0197
rfingers 7.12502
rthumb 18.9699 -82.1147
lclavicle -3.12589e-014 1.39149e-014
lhumerus -27.1696 2.39229 83.6177
lradius 22.6121
lwrist -6.26101
lhand -20.094 -12.3118
lfingers 7.12502
lthumb 6.24907 17.5761
rfemur -64.739 1.67453 21.3713
rtibia 52.5908
rfoot -24.9745 -7.89593
rtoes -15.2872
lfemur -13.1161 -9.75501 -20.4404
ltibia 16.3536
lfoot -6.51485 0.0763386
ltoes -39.0281
625
root 8.85522 18.7091 -8.16723 -156.156 -3.95419 179.443
lowerback -17.3481 -4.09306 -2.26699
upperback 1.79955 -5.22044 1.79729
thorax 12.1495 -2.6869 1.81983
lowerneck -2.02657 -2.5095 -1.70689
upperneck 16.4875 -3.17729 5.25451
head 5.39909 -0.965226 1.79137
rclavicle 2.93953e-014 -1.04362e-014
rhumerus -43.952 -17.9255 -74.8261
rradius 37.6493
rwrist -1.04818
rhand -6.6182 -53.8991
rfingers 7.12502
rthumb 19.238 -82.9676
lclavicle 2.93953e-014 -1.04362e-014
lhumerus -27.2381 2.98738 83.3449
lradius 22.0999
lwrist -6.62392
lhand -19.8736 -11.7824
lfingers 7.12502
lthumb 6.46186 18.0991
rfemur -64.3057 1.72921 21.3283
rtibia 52.4025
rfoot -25.2691 -7.95037
rtoes -15.4489
lfemur -13.1302 -9.73103 -20.4159
ltibia 16.612
lfoot -5.35388 -0.127437
ltoes -39.5237
626
root 8.87807 18.7593 -8.25845 -156.05 -3.90866 179.349
lowerback -17.3143 -4.18011 -2.22273
upperback 1.79301 -5.35277 1.84676
thorax 12.1318 -2.74827 1.81402
lowerneck -1.98652 -2.3096 -1.6509
upperneck 16.251 -2.8875 4.977
head 5.30362 -0.854218 1.70879
rclavicle 5.71506e-015 -5.61567e-015
rhumerus -43.5308 -17.6428 -75.0841
rradius 37.8859
rwrist -1.41651
rhand -6.57814 -54.3031
rfingers 7.12502
rthumb 19.2765 -83.3677
lclavicle 5.71506e-015 -5.61567e-015
lhumerus -27.3534 3.86221 83.0028
lradius 21.7205
lwrist -7.08182
lhand -19.8806 -11.7132
lfingers 7.12502
lthumb 6.45507 18.1684
rfemur -63.7434 1.96262 21.2377
rtibia 52.1244
rfoot -25.4638 -8.10199
rtoes -16.5994
lfemur -13.1921 -9.68592 -20.3159
ltibia 16.8292
lfoot -3.86663 -0.255483
ltoes -37.45
627
root 8.90274 18.8101 -8.35055 -155.918 -3.70369 179.357
lowerback -17.3469 -4.2406 -2.11298
upperback 1.78734 -5.46042 1.87514
thorax 12.1432 -2.79258 1.75109
lowerneck -2.10191 -2.13094 -1.61725
upperneck 16.286 -2.61932 4.70357
head 5.32113 -0.741681 1.63075
rclavicle 2.11706e-014 -1.85864e-014
rhumerus -43.2325 -17.1715 -75.4543
rradius 38.3157
rwrist -1.95984
rhand -6.74171 -54.5554
rfingers 7.12502
rthumb 19.1192 -83.6356
lclavicle 2.11706e-014 -1.85864e-014
lhumerus -27.5734 4.61547 82.5792
lradius 21.4752
lwrist -7.32303
lhand -20.0107 -11.8597
lfingers 7.12502
lthumb 6.32952 18.0258
rfemur -63.131 2.37209 21.2122
rtibia 51.5519
rfoot -25.4878 -8.22759
rtoes -17.7677
lfemur -13.3133 -9.59092 -20.1477
ltibia 17.1063
lfoot -2.50007 -0.120991
ltoes -36.3842
628
root 8.92819 18.865 -8.44649 -155.748 -3.53852 179.373
lowerback -17.4856 -4.27697 -1.9712
upperback 1.72884 -5.54094 1.88899
thorax 12.1491 -2.82129 1.65669
lowerneck -2.25024 -2.02694 -1.75524
upperneck 16.7922 -2.41354 4.46966
head 5.49626 -0.643172 1.59445
rclavicle 3.70982e-014 -2.29099e-014
rhumerus -43.1605 -16.5916 -75.8215
rradius 38.995
rwrist -2.51516
rhand -6.58684 -55.086
rfingers 7.12502
rthumb 19.2681 -84.1515
lclavicle 3.70982e-014 -2.29099e-014
lhumerus -27.9299 5.02035 82.2426
lradius 21.2468
lwrist -7.31863
lhand -20.1151 -11.9254
lfingers 7.12502
lthumb 6.22872 17.9631
rfemur -62.403 2.67164 21.2326
rtibia 50.6649
rfoot -25.5994 -8.19737
rtoes -17.7592
lfemur -13.5428 -9.45735 -19.9697
ltibia 17.5408
lfoot -1.234 0.0295098
ltoes -36.9626
629
root 8.95266 18.9241 -8.54189 -155.613 -3.51492 179.341
lowerback -17.5024 -4.3322 -1.85933
upperback 1.63277 -5.64365 1.91803
thorax 12.047 -2.86403 1.59863
lowerneck -1.87074 -1.98432 -1.61813
upperneck 16.5644 -2.32718 4.23203
head 5.35373 -0.616839 1.50262
rclavicle 7.22582e-014 -2.3059e-014
rhumerus -43.1647 -16.0337 -76.0942
rradius 39.6362
rwrist -3.0258
rhand -6.29072 -55.2457
rfingers 7.12502
rthumb 19.5529 -84.2825
lclavicle 7.22582e-014 -2.3059e-014
lhumerus -28.3253 5.70404 81.8795
lradius 21.0749
lwrist -7.68987
lhand -20.1497 -11.8452
lfingers 7.12502
lthumb 6.1953 18.0442
rfemur -61.6247 2.9037 21.1605
rtibia 49.9879
rfoot -25.8659 -8.0737
rtoes -17.4229
lfemur -13.8412 -9.31402 -19.8042
ltibia 18.0597
lfoot 0.170163 0.0967884
ltoes -36.6205
630
root 8.97505 18.9838 -8.63583 -155.52 -3.45451 179.253
lowerback -17.4875 -4.36032 -1.80323
upperback 1.63891 -5.69188 1.90957
thorax 12.0412 -2.88241 1.54498
lowerneck -2.07365 -1.84729 -1.50923
upperneck 16.6346 -2.11516 3.93133
head 5.39982 -0.527347 1.40038
rclavicle -5.28767e-014 1.97791e-014
rhumerus -42.9295 -15.7601 -76.336
rradius 40.0379
rwrist -3.34438
rhand -5.99489 -55.1435
rfingers 7.12502
rthumb 19.8373 -84.1511
lclavicle -5.28767e-014 1.97791e-014
lhumerus -28.3932 6.3727 81.5433
lradius 21.0009
lwrist -8.09599
lhand -20.0444 -11.5701
lfingers 7.12502
lthumb 6.29694 18.3163
rfemur -60.8727 3.08809 21.0275
rtibia 49.55
rfoot -26.2061 -7.73579
rtoes -16.106
lfemur -14.1424 -9.09673 -19.7455
ltibia 18.6948
lfoot 1.68215 0.133313
ltoes -35.07
631
root 8.99969 19.0448 -8.72588 -155.416 -3.30625 179.107
lowerback -17.5324 -4.35125 -1.8531
upperback 1.69248 -5.66216 1.86651
thorax 12.127 -2.86881 1.52923
lowerneck -2.62662 -1.77304 -1.25058
upperneck 17.0399 -1.97911 3.52267
head 5.611 -0.461438 1.23581
rclavicle -4.96216e-014 -5.26779e-015
rhumerus -42.6351 -15.4502 -76.6239
rradius 40.4937
rwrist -3.6992
rhand -5.78684 -55.4207
rfingers 7.12502
rthumb 20.0373 -84.4076
lclavicle -4.96216e-014 -5.26779e-015
lhumerus -28.3793 6.56238 81.3624
lradius 21.0203
lwrist -8.17648
lhand -19.8504 -11.4016
lfingers 7.12502
lthumb 6.48422 18.4791
rfemur -60.1874 3.22886 20.9168
rtibia 48.8163
rfoot -25.9919 -7.75646
rtoes -17.2885
lfemur -14.5275 -8.82969 -19.7724
ltibia 19.4524
lfoot 3.24588 0.222443
ltoes -32.7511
632
root 9.02766 19.1054 -8.81481 -155.228 -3.28276 178.971
lowerback -17.6132 -4.37713 -1.89994
upperback 1.56708 -5.6859 1.85283
thorax 12.0355 -2.88303 1.53242
lowerneck -2.37818 -1.73107 -0.973434
upperneck 17.0288 -1.85128 2.99433
head 5.55487 -0.415642 1.03239
rclavicle 2.64259e-014 6.55989e-015
rhumerus -42.9131 -14.9364 -76.8397
rradius 41.4833
rwrist -4.10597
rhand -5.87974 -55.6142
rfingers 7.12502
rthumb 19.948 -84.6104
lclavicle 2.64259e-014 6.55989e-015
lhumerus -28.7543 6.69531 81.164
lradius 21.0577
lwrist -8.23023
lhand -19.7935 -11.5509
lfingers 7.12502
lthumb 6.53917 18.3281
rfemur -59.6263 3.35403 20.8651
rtibia 47.6918
rfoot -25.2558 -8.22837
rtoes -17.7794
lfemur -15.1225 -8.62654 -19.6901
ltibia 20.2803
lfoot 4.8624 0.379317
ltoes -29.7578
